<svg width="36" height="48" viewBox="0 0 36 48" fill="none" xmlns="http://www.w3.org/2000/svg">
<path d="M22 21.67C21.9368 21.4871 21.822 21.3265 21.6693 21.2075C21.5167 21.0886 21.3328 21.0165 21.14 21L15.45 20.17L12.9 15C12.8181 14.831 12.6902 14.6884 12.5311 14.5886C12.3719 14.4888 12.1878 14.4359 12 14.4359C11.8121 14.4359 11.6281 14.4888 11.4689 14.5886C11.3097 14.6884 11.1819 14.831 11.1 15L8.54998 20.16L2.85998 21C2.6749 21.0263 2.5009 21.104 2.35773 21.2242C2.21455 21.3444 2.10794 21.5023 2.04998 21.68C1.99692 21.8537 1.99216 22.0385 2.03621 22.2147C2.08025 22.3909 2.17144 22.5517 2.29998 22.68L6.42998 26.68L5.42998 32.36C5.3896 32.5484 5.40453 32.7445 5.47296 32.9247C5.54139 33.1048 5.66041 33.2613 5.81571 33.3754C5.971 33.4895 6.15595 33.5563 6.34831 33.5678C6.54066 33.5792 6.73224 33.5349 6.89998 33.44L12 30.77L17.1 33.44C17.2403 33.5192 17.3988 33.5606 17.56 33.56C17.7718 33.5608 17.9784 33.4942 18.15 33.37C18.3051 33.2589 18.4252 33.1057 18.4961 32.9285C18.567 32.7513 18.5857 32.5575 18.55 32.37L17.55 26.69L21.68 22.69C21.8244 22.5677 21.9311 22.4069 21.9877 22.2264C22.0444 22.0458 22.0486 21.8529 22 21.67ZM15.85 25.67C15.7342 25.7824 15.6474 25.9212 15.5969 26.0744C15.5464 26.2276 15.5337 26.3908 15.56 26.55L16.28 30.75L12.52 28.75C12.3738 28.6777 12.213 28.6401 12.05 28.6401C11.8869 28.6401 11.7261 28.6777 11.58 28.75L7.81998 30.75L8.53998 26.55C8.56622 26.3908 8.55354 26.2276 8.50305 26.0744C8.45255 25.9212 8.36572 25.7824 8.24998 25.67L5.24998 22.67L9.45998 22.06C9.62198 22.0375 9.77598 21.9756 9.90848 21.8797C10.041 21.7838 10.1479 21.6569 10.22 21.51L12 17.7L13.88 21.52C13.952 21.6669 14.059 21.7938 14.1915 21.8897C14.324 21.9856 14.478 22.0475 14.64 22.07L18.85 22.68L15.85 25.67Z" fill="#050510"/>
</svg>
